<?xml version="1.0" standalone="no"?>
<!DOCTYPE svg PUBLIC "-//W3C//DTD SVG 20010904//EN"
 "http://www.w3.org/TR/2001/REC-SVG-20010904/DTD/svg10.dtd">
<svg version="1.0" xmlns="http://www.w3.org/2000/svg"
 width="1198.000000pt" height="1280.000000pt" viewBox="0 0 1198.000000 1280.000000"
 preserveAspectRatio="xMidYMid meet">
<metadata>
Created by potrace 1.15, written by Peter Selinger 2001-2017
</metadata>
<g transform="translate(0.000000,1280.000000) scale(0.100000,-0.100000)"
fill="#000000" stroke="none">
<path fill="#536DFE" d="M6280 12794 c-659 -29 -1324 -115 -1960 -255 -1363 -300 -2728 -878
-3910 -1656 -238 -157 -448 -305 -385 -271 32 18 660 282 875 368 1947 782
3502 1157 5275 1272 267 17 1241 17 1515 0 1342 -85 2581 -314 4080 -756 102
-30 186 -53 188 -52 6 6 -433 230 -633 322 -1254 579 -2527 908 -3915 1009
-204 15 -936 27 -1130 19z"/>
<path fill="#536DFE" d="M9040 9696 c14 -8 111 -51 215 -96 691 -299 950 -426 1240 -609 272
-171 473 -327 729 -566 105 -98 156 -140 151 -124 -15 51 -69 164 -115 245
-237 413 -654 752 -1181 963 -298 119 -692 202 -957 201 -95 -1 -104 -2 -82
-14z"/>
<path fill="#536DFE" d="M7240 9403 c-19 -1 -87 -8 -150 -14 -157 -14 -433 -62 -608 -105
-797 -195 -1627 -646 -2382 -1293 -602 -516 -1080 -1088 -1432 -1711 -89 -158
-203 -381 -267 -525 -30 -66 -92 -203 -138 -305 -202 -441 -263 -620 -262
-765 0 -118 -8 -104 394 -710 280 -422 474 -700 637 -910 164 -212 173 -221
134 -132 -13 28 -116 284 -229 567 -113 283 -267 662 -342 842 -100 242 -135
334 -129 350 11 37 110 213 202 358 47 74 135 218 197 320 324 536 557 855
903 1233 585 641 1391 1257 2113 1616 531 265 1032 415 1574 472 247 26 631
14 880 -27 199 -33 517 -114 595 -152 72 -35 224 -289 295 -492 40 -116 127
-455 174 -680 139 -666 210 -1240 241 -1950 59 -1349 -154 -2998 -525 -4060
-135 -387 -232 -530 -397 -587 -66 -23 -170 -32 -618 -53 -234 -12 -569 -30
-745 -40 -426 -26 -627 -26 -729 0 -43 11 -101 32 -129 47 -145 77 -288 287
-467 683 -391 867 -595 1853 -671 3245 -14 272 -14 912 0 1130 20 282 84 805
98 791 3 -2 -2 -51 -11 -108 -18 -128 -44 -384 -54 -543 l-8 -120 60 -58 c143
-139 392 -208 696 -192 219 11 228 13 282 70 144 155 398 468 542 669 31 43
56 76 56 73 0 -3 -20 -83 -45 -179 -151 -585 -218 -1168 -218 -1898 -1 -860
70 -1402 239 -1822 80 -200 173 -354 284 -471 275 -293 621 -365 869 -182 153
113 239 288 341 693 139 553 210 1129 210 1708 0 132 2 243 5 245 2 3 37 0 77
-7 364 -64 642 101 729 433 30 113 36 289 15 386 -68 303 -348 473 -622 377
-72 -25 -183 -99 -229 -152 -40 -48 -37 -54 -55 112 -17 160 -58 438 -86 579
-128 646 -343 1014 -654 1117 -67 22 -187 22 -247 0 -24 -8 -43 -14 -43 -12 0
2 34 68 75 148 114 220 145 327 145 497 0 166 -41 274 -144 377 -163 163 -452
214 -787 138 -106 -24 -77 -26 36 -3 133 28 319 30 430 5 116 -26 234 -85 300
-151 93 -93 135 -204 135 -355 -1 -165 -35 -275 -162 -510 -81 -150 -103 -183
-171 -252 -124 -126 -245 -327 -337 -563 -50 -128 -396 -597 -668 -907 -61
-69 -93 -98 -114 -102 -16 -3 -92 -11 -168 -17 -321 -25 -568 39 -715 187 -33
33 -34 35 -29 101 2 38 9 142 14 233 22 351 77 697 150 945 25 83 30 102 35
135 5 31 74 225 115 321 16 39 29 74 26 76 -6 6 -99 -219 -156 -379 -227 -633
-343 -1315 -402 -2373 -17 -303 -17 -1425 0 -1660 55 -778 175 -1413 368
-1959 159 -449 271 -661 449 -844 178 -185 360 -276 660 -329 89 -16 164 -18
710 -16 769 3 1269 16 1389 38 308 56 562 222 737 486 272 407 520 1345 618
2339 42 424 46 517 46 1060 0 527 -3 605 -41 1015 -78 862 -269 1752 -564
2635 -145 435 -205 575 -326 763 -24 37 -42 67 -39 67 12 0 207 -91 346 -161
445 -225 919 -555 1407 -978 74 -64 152 -131 174 -150 l40 -35 -67 110 c-435
706 -1056 1321 -1720 1704 -496 286 -1025 454 -1580 500 -110 9 -482 11 -565
3z m-1773 -2835 c-3 -8 -6 -5 -6 6 -1 11 2 17 5 13 3 -3 4 -12 1 -19z m3654
-958 c82 -16 158 -57 225 -124 109 -110 150 -230 141 -421 -14 -326 -169 -543
-426 -596 -65 -13 -306 -8 -322 8 -15 15 -45 251 -58 453 -7 96 -19 244 -27
329 l-15 154 53 54 c34 35 81 68 133 94 113 56 191 69 296 49z"/>
<path fill="#536DFE" d="M6745 8385 c-39 -17 -21 -18 25 0 19 7 28 14 20 14 -8 0 -28 -6 -45
-14z"/>
<path fill="#536DFE" d="M6680 8360 c-8 -5 -10 -10 -5 -10 6 0 17 5 25 10 8 5 11 10 5 10 -5
0 -17 -5 -25 -10z"/>
<path fill="#536DFE" d="M6578 8314 c-27 -13 -48 -27 -48 -29 0 -5 99 42 109 51 13 11 -20 0
-61 -22z"/>
<path fill="#536DFE" d="M5850 7770 c-11 -22 -18 -40 -15 -40 2 0 14 18 25 40 11 22 18 40 15
40 -2 0 -14 -18 -25 -40z"/>
<path fill="#536DFE" d="M5792 7654 c-18 -35 -32 -68 -32 -72 1 -4 17 24 36 62 19 37 34 70
32 72 -2 2 -18 -26 -36 -62z"/>
</g>
</svg>
